<?xml version='1.0' encoding='UTF-8'?>
<!-- Created with Inkscape (http://www.inkscape.org/) --><svg xmlns:inkscape="http://www.inkscape.org/namespaces/inkscape" xmlns:sodipodi="http://sodipodi.sourceforge.net/DTD/sodipodi-0.dtd" xmlns="http://www.w3.org/2000/svg" xmlns:svg="http://www.w3.org/2000/svg" width="500" height="500" viewBox="0 0 132.29166 132.29167" version="1.1" id="svg1" xml:space="preserve"><defs id="defs1"/><g id="layer1"><path style="fill:currentColor;stroke-width:0.264583" d="m 0.45617815,39.003231 c 0.0319112,1.883408 1.81107115,3.555311 2.96827935,4.76774 0.7052327,1.287421 1.5504314,1.57906 1.7787879,2.985435 0.8871586,1.376156 1.5146846,2.535467 1.867516,4.107458 0.5721965,1.910083 0.9553109,3.806217 0.663729,5.853238 -0.6536555,2.120474 -0.4492163,4.291208 -0.4971757,6.46883 0.073388,1.661675 0.4677336,3.306296 0.4911705,4.983993 -0.118658,1.838562 1.4077636,3.467946 1.0280128,5.208656 -0.061769,2.422288 -0.6727218,4.704566 -0.5079906,7.163649 -0.7948941,1.58634 -1.4547387,3.798991 -1.4058351,5.903531 -1.1702932,1.148317 -3.0843875,2.309659 -3.3724274,4.212167 -2.48694543,1.299162 -1.7517327,4.1039 -2.1275446,6.365216 -0.3133591,2.244968 -1.32129665,0.113089 -0.82664876,-1.027578 -0.9462911,-1.82874 -0.59522206,-3.851755 -0.89390616,-5.783059 C -0.48972525,88.324135 -0.73703097,86.487756 0.09718321,85.00931 0.74784683,84.386299 1.7097034,82.351641 1.6957369,80.842557 1.5921209,78.232994 -1.6616995,82.196826 -0.91235632,79.374999 -1.5602176,77.161846 -1.7144716,74.781435 -0.84671139,72.600678 -0.16219815,70.225403 -1.0586273,67.90052 -1.126383,65.57198 c -0.3883462,-2.298454 -0.3849426,-4.728024 -0.1441996,-7.164312 -0.3253249,-2.260907 -0.526277,-4.516514 -0.7473033,-6.773556 -0.2530287,-1.776495 -0.2337813,-3.770448 0.4212623,-5.332029 0.4926495,-2.421984 0.94315846,-4.99816 2.05280175,-7.298852 z" id="path5"/><path style="fill:currentColor;stroke-width:0.264583" d="m 0,23.265086 c 2.9011285,2.25927 4.1530418,4.322766 7.0875906,6.028497 1.8194406,0.93944 3.9738954,3.578551 5.0011304,4.463601 1.348369,2.603911 1.347571,5.163998 3.649425,7.526938 2.004142,-3.266641 -1.036816,-6.11057 -2.508979,-9.123563 C 11.691442,28.7435 10.542341,25.714159 7.7550287,23.265086 6.0100441,21.374871 2.6500252,18.979683 1.1404454,17.790948 -2.3547546,15.107624 -1.5515222,10.200881 -1.8229434,6.1976289 -2.5659443,2.9228026 0.90559487,-1.3159543 2.6010733,3.3052258 c 2.4562448,3.2588729 7.8832727,3.5525946 6.750579,8.5554062 1.8318757,2.092033 7.5575357,3.318084 7.2988507,7.983118 2.195047,3.852032 3.051251,7.525073 6.842672,9.351653 3.37741,1.920698 4.171792,6.613789 6.842672,9.351652 2.113384,3.7072 2.578675,8.366407 5.246049,12.316809 0.959965,4.324022 1.473847,9.091713 0,13.457256 -0.397965,2.585421 -1.628425,3.308761 -1.140446,6.10985 -0.09171,3.834706 0.323506,7.708347 -0.531348,11.457523 0.275803,5.385689 -3.582061,8.689919 -5.170878,13.452742 -2.830561,4.310185 -2.053171,9.866225 -4.368332,14.317045 -2.275529,5.2379 -5.754502,10.07129 -6.808033,15.79071 -1.124372,3.11639 -3.676593,4.91157 -5.895058,7.05058 -1.8312595,3.74159 -6.682783,2.27982 -8.7283955,1.05583 1.0585182,-2.765 1.1164089,-5.04275 3.6937895,-6.28471 1.778908,-1.94393 3.761063,-2.95509 5.455526,-5.47112 2.000563,-2.97059 3.47349,-6.57673 3.877515,-10.26401 0.435833,-3.95679 0.288277,-8.05072 1.368534,-11.860633 0.968514,-3.314058 3.712621,-5.77641 4.334591,-8.302974 1.814603,-4.718605 1.459938,-9.994458 0.554671,-14.902635 -0.47628,-4.580185 -0.192015,-9.152841 -0.32748,-13.74482 0.13354,-3.755219 -2.448276,-6.742969 -2.844103,-10.412663 0.5132,-2.439216 -0.09826,-9.467315 -2.587192,-7.537976 -0.349566,4.903069 0.617064,9.604999 0.855667,14.417179 0.488457,3.774115 0.295357,7.642944 1.154291,11.288487 0.201682,4.988027 0.698386,10.095826 0.388408,15.129682 -1.381563,4.445976 -2.995337,8.995449 -5.634457,12.925274 -2.712108,3.992059 -1.516371,9.087549 -3.193246,13.343219 -0.9683574,3.85948 -1.3522114,8.22754 -4.205104,11.10209 -1.5386736,1.63565 -5.94776717,5.27254 -6.74317232,4.75009 -0.18248408,-3.39275 -1.09390098,-7.53984 -0.90848838,-10.98433 1.43801608,-0.67155 2.33757669,-2.44298 4.1017355,-3.84146 2.8043698,-2.62001 2.9826541,-6.72916 3.2685736,-10.3507 C 5.5482176,98.141791 6.0589528,93.539197 7.7550287,89.410917 8.9942781,85.875516 12.317264,81.971772 12.351578,77.578293 13.084121,72.645322 11.360893,68.233259 9.9095139,63.644764 7.8089906,58.332974 8.6423692,52.430356 9.3516523,46.986351 10.13098,44.133332 11.370234,39.912047 9.2500478,37.631104 6.5236224,35.511733 4.847229,32.742449 1.8247126,31.248204 0.42854531,29.71846 -1.5187369,29.349871 -1.6295077,26.076169 c 0.5160602,-1.601778 -0.6432436,-2.638816 0.032884,-3.951528" id="path6"/><path style="fill:currentColor;stroke-width:0.264583" d="m 2.9651581,-1.5966236 c 3.370595,3.5460532 5.6801265,7.2962894 9.3516519,10.0359195 2.937437,3.1221201 7.359576,5.8801931 10.03592,9.8078301 1.609676,5.533443 8.928318,7.111199 10.264008,12.772989 1.679871,4.326939 7.798052,1.614553 9.579742,6.386494 2.247888,2.617134 4.062911,5.500499 4.105603,9.123563 4.052236,4.278756 10.597267,5.739289 13.065837,8.430843 3.181348,3.858615 5.786078,9.164243 9.937345,12.688271 3.89664,3.692932 8.677909,6.763172 9.613555,12.409981 0.408385,5.391549 4.504501,4.060099 1.819086,-0.456854 -2.087429,-4.104578 -2.519704,-9.72461 -3.941703,-14.282096 4.49086,1.15429 6.483209,9.106394 7.596756,14.054682 -1.705888,5.863316 0.157332,12.316943 0.923142,18.401219 2.199069,4.401452 3.887563,9.841682 9.112777,11.022272 5.936542,0.37016 10.378922,4.10537 14.795152,7.69399 5.11449,2.19464 8.24679,6.15987 7.78567,11.92167 0.72564,3.1606 4.39311,7.18572 7.67966,4.5886 0.45105,-4.92409 -4.34146,-9.5288 -5.77258,-14.35287 -2.62937,-5.69043 -6.04386,-11.42428 -12.17109,-14.18508 C 101.44878,102.64085 97.151389,98.513246 95.113146,93.288434 91.964787,88.08223 91.76441,82.26155 91.691808,76.40984 90.689287,71.620013 88.877536,67.332114 86.90194,62.724498 84.534403,58.053869 80.53241,54.74057 76.338499,51.824885 71.475053,48.804791 66.091349,46.882955 61.29263,43.570622 55.751794,39.714991 51.51495,34.644562 46.986351,29.879668 44.235236,26.890222 40.155448,21.405364 36.741552,17.287818 32.954156,13.07521 29.17079,8.9798565 24.861709,5.2460487 21.896485,2.7242974 18.866549,0.25782585 14.82579,-1.1404454 11.121854,-1.9947283 6.7390824,-3.2432005 2.9651581,-1.5966236 Z" id="path7"/><path style="fill:currentColor;stroke-width:0.264583" d="m 39.231321,133.88829 c 0.529142,-1.71395 0.956472,-3.64209 2.303639,-4.91912 1.629139,-0.98271 1.982544,-2.96648 2.756798,-4.55869 0.53037,-0.80541 0.951415,-1.4362 1.051843,-2.36411 0.907618,-0.96487 1.232094,-2.38278 1.698562,-3.61244 0.736746,-2.42575 0.693647,-5.00376 0.499349,-7.50415 0.0151,-1.41025 1.38546,-2.26364 2.193102,-3.12291 0.650958,-0.28802 1.058251,-0.16673 0.200897,-0.20482 0.432888,-0.67126 1.42259,-0.13047 1.242884,-1.21475 0.716793,-0.4549 0.637807,-1.17181 1.054003,-1.9225 0.769764,-0.28657 1.377302,0.0522 1.545865,0.44104 0.900858,1.07068 0.519366,2.8232 1.419294,3.89265 0.567006,0.88904 1.169563,1.5708 2.041271,2.41199 1.445865,1.24977 1.311299,3.28881 1.671479,5.00055 0.442484,1.47063 -0.02669,2.97385 0.119862,4.45985 0.55089,2.23564 0.37781,4.60521 -0.04345,6.83366 -0.595298,1.02276 -0.403381,2.33056 -1.127784,3.36529 -0.425856,1.27693 -1.873812,1.60127 -2.617008,2.53514 -1.28922,0.22801 -2.448293,0.88803 -3.693426,1.05555 -1.715695,0.52627 -3.5461,-0.0189 -5.290719,-0.15128 -1.310123,0.3094 -2.503721,-0.15504 -3.769335,-0.2688 -1.607507,0.21302 -3.299574,0.12732 -4.674409,-0.82847 -0.432166,-0.10706 -0.111036,-0.65935 -0.635519,-0.46413" id="path8"/><path style="fill:currentColor;stroke-width:0.264583" d="m 57.022269,133.43211 c 2.188624,1.63145 -2.084536,-1.53601 1.323639,0.80709 1.968443,2.31178 5.856216,0.12482 6.65948,-1.49136 0.767063,-3.63921 -0.895749,-7.01463 -0.344811,-10.97456 -0.551036,-2.1575 1.215093,-7.27898 2.191527,-3.01482 -0.997273,4.28023 -0.193396,8.67931 1.891654,12.60998 2.065185,4.72552 7.957542,2.33261 6.484276,-2.3287 -0.270441,-4.50534 -3.830606,-7.86364 -5.888953,-11.34577 -1.838652,-3.37059 -2.466136,-6.87688 -3.821334,-10.41765 -1.325129,-5.25502 -4.107686,-9.889063 -5.530319,-15.128333 -1.001713,-2.865717 -1.403281,-7.819026 -5.474139,-7.755028 -1.215395,2.903435 -2.846702,5.98975 -5.017958,8.667385 -0.358669,3.660092 -6.451409,5.342556 -4.561782,0 0.495221,-3.395324 2.875663,-5.635979 4.931871,-8.039032 1.5733,-3.762326 5.083169,-6.00296 9.43774,-4.505869 2.180913,2.807268 4.91288,5.205165 5.930315,8.439298 2.150831,3.745747 2.890108,7.849385 4.420912,11.867689 1.440495,4.6028 2.462603,9.59142 4.34303,14.04815 0.68068,3.95316 2.437614,7.87752 4.465225,11.26268 0.64593,4.79302 4.127265,7.23125 8.753852,6.79139 3.140263,1.08621 6.96904,-0.15861 4.128298,-3.62271 -2.532122,-3.0966 -4.66684,-6.52912 -5.800731,-10.46023 -1.806223,-4.7131 -4.546148,-9.01233 -7.765685,-12.78029 -1.992125,-3.17032 -4.139539,-6.213501 -5.089104,-10.031884 -1.350486,-4.272149 -1.656395,-8.79282 -4.196864,-12.601355 -1.209017,-2.015031 -3.315708,-10.091708 0.162405,-5.193626 0.895119,4.181004 3.229391,7.465418 4.657896,11.406951 1.78025,4.186045 2.543954,8.699695 4.693757,12.770494 1.005672,3.64048 3.559886,7.46777 5.015964,9.82088 1.825331,3.60626 5.398176,5.90737 8.277411,8.87244 3.009664,3.28003 4.881916,7.20008 8.831269,9.36163 2.37255,1.78492 4.27668,4.37606 7.78059,5.53288 2.91065,1.22377 8.87148,-1.44918 4.30813,-4.16434 -1.09543,-2.85756 -4.82074,-5.44732 -6.15841,-7.07077 -3.46473,-2.41248 -6.923705,-5.43067 -9.80783,-8.66738 -0.565434,-2.16367 -4.124742,-3.83306 -4.382812,-4.97639 -2.600077,-2.71798 -5.609324,-5.10211 -7.50286,-8.15931 -1.298068,-3.385913 -2.508946,-6.868149 -3.540324,-10.300718 -1.176834,-3.799095 -3.20937,-7.179342 -4.87393,-10.776943 -1.24377,-4.560834 -4.81621,-6.200433 -6.670734,-10.239822 -2.146752,-3.546909 -6.150637,-5.156764 -9.295502,-7.551126 -3.637432,-2.585551 -5.566807,-6.599048 -9.123564,-8.895474 -3.419308,-1.793189 -4.87788,-5.404413 -7.57864,-7.76868 -2.371413,-3.093302 -4.724,-6.242175 -7.361195,-9.109912 -1.254645,-2.359379 -4.503653,-3.786678 -2.554879,0.02304 1.117675,4.052524 4.199082,7.211484 5.528464,11.478435 0.853498,2.846484 1.579751,7.001392 2.378354,10.412292 1.021375,4.311296 0.488819,8.930755 -1.13229,12.983858 -1.260801,4.203937 -2.038439,8.30507 -3.07943,12.317949 -1.019942,4.384173 -3.329037,8.265046 -5.017733,12.429716 -1.905137,3.915831 -3.541831,8.278751 -5.360093,12.430851 -1.656077,3.93601 -1.204576,8.26381 -2.945898,12.31911 -1.559519,3.03013 -1.220678,6.98151 -3.657482,9.23995 0.549745,3.68546 4.089789,1.23857 4.539375,-0.92164 1.272717,-3.15978 2.229956,-6.20575 3.660628,-8.77678 0.860545,-2.39435 2.377758,-5.29993 3.649427,-8.21121 1.738538,-4.63607 4.223366,-8.70908 5.702226,-13.45726 0.609697,-4.106427 0.622939,-8.319134 2.965159,-11.632539 2.226215,-5.134663 4.022626,-10.388113 4.611472,-15.96248 0.359483,-3.31226 -1.392916,-7.9457 1.775022,-9.811587 4.09877,-0.791836 7.973333,1.302168 10.442789,3.876752 2.33222,2.008217 6.492286,5.107409 5.838512,8.0765 -4.435648,-0.498523 -4.957006,-5.478593 -9.520589,-5.520042 -2.719684,-0.369216 -3.97065,4.209739 -3.990236,6.932206 -1.387265,2.708471 -5.06114,4.337748 -6.005,7.803051 -0.827698,4.108487 -0.544555,7.793552 -1.099169,11.904449 -0.243683,3.380732 -1.570695,6.49613 -2.965158,9.35165 -0.801647,3.42202 -3.974658,6.0125 -5.702226,9.80783 -2.666485,2.68678 -4.577296,6.85349 -6.197484,10.47963 -1.540551,2.88152 -1.855777,5.4888 -2.357227,8.90915 2.988172,1.86513 7.903515,1.08259 10.895803,-0.57219 3.220761,-2.6318 4.016657,-6.61833 4.273491,-10.37729 0.306825,-4.61693 1.998027,-8.81174 3.481208,-13.26053 2.767516,-3.3921 5.43937,-7.26423 6.93645,-11.474716 0.119048,-4.483683 3.904241,-4.463623 5.371756,-0.706867 2.09115,2.563453 2.955254,6.627393 4.054336,9.703963 0.694973,3.95196 2.815233,7.95269 2.203774,12.23192 -0.775439,4.49641 -2.452066,6.97827 -4.256576,10.12081 -0.192235,0.59642 -1.50307,1.26173 -1.368536,2.96516 z" id="path9"/><path style="fill:currentColor;stroke-width:0.264583" d="m 31.476293,-2.0528017 c -0.252777,2.01605641 2.612073,2.66666972 2.470541,4.6686383 0.74748,1.988837 0.264442,4.2734753 1.624468,6.0495433 0.463625,0.540264 0.928103,1.3457171 0.480024,1.4202171 0.78135,1.01273 2.024988,1.848437 2.039551,2.91548 1.10738,0.961535 1.683512,2.451521 2.606492,3.685224 1.040493,0.140919 1.792335,1.953646 2.584189,2.215265 0.152343,-1.485609 0.252078,-3.068587 -0.40081,-4.303865 -0.411079,-1.44914 -1.246232,-3.126915 -1.596626,-4.333693 -0.545338,-0.7988636 -2.548348,-2.8496822 -0.464198,-1.6112 1.579719,1.0004953 3.048284,2.093787 3.99958,3.549958 0.970406,0.9335 0.708217,3.129562 1.963593,3.292033 0.597868,1.791312 2.292469,2.860065 3.202341,4.466409 1.072508,1.849292 2.343389,3.714697 2.115364,5.976809 0.68656,1.64061 1.08389,3.439119 2.231882,4.871226 1.114297,1.532719 2.151793,3.0606 3.365832,4.435649 1.048513,1.469166 2.39511,2.693533 3.757663,3.856668 0.769501,1.285797 2.055897,1.661747 3.315729,2.143983 1.046652,0.130041 2.239419,0.587845 1.487301,-1.007709 -0.422992,-1.689154 -1.479681,-2.996548 -2.335035,-4.552729 -0.69112,-1.572268 -1.235812,-2.848061 -2.34984,-4.086803 -0.48129,-0.860498 -1.15335,-1.572381 -1.75523,-2.854595 -1.198773,-1.498563 -1.686828,-3.471843 -2.112567,-5.250532 -0.680082,-1.966322 -0.717529,-4.02424 -0.784212,-6.048281 -0.7305,-2.534354 -1.328058,-5.12646 -2.180947,-7.6370635 C 53.949417,8.3433871 53.67883,6.5324209 52.688577,5.2460487 52.113586,4.0166492 50.494282,2.0385216 50.155132,1.4697779 49.31941,0.42223503 48.292309,-0.4489172 47.442527,-1.1404454 c 0.03297,-1.3472671 -1.6257,-1.7989895 -2.737067,-1.938757 -1.982989,-0.9585807 -3.737528,2.18026273 -2.508177,3.84539883 1.809845,0.63333727 2.756152,2.75975897 3.192442,4.47985227 0.942086,0.9829007 0.797887,2.619408 1.368536,3.6494254 C 45.078983,8.4394566 44.452538,5.8515267 42.987082,4.9090988 42.130206,3.6648374 40.7939,2.6039012 39.915589,1.1404454 39.287142,0.4640051 38.872429,-0.78459386 37.871689,-1.4291651 36.7981,-2.1742028 36.881638,1.6966502 35.353807,-0.22808908 34.074869,-0.86520524 32.719357,-1.3427692 31.476293,-2.0528017 Z" id="path10"/><path style="fill:currentColor;stroke-width:0.264583" d="m 51.091954,-4.5617815 c 1.758412,2.1358151 2.216988,5.06288488 4.19331,7.0519419 0.485941,0.7524879 0.872108,1.9121142 -0.0129,0.7577103 0.795069,1.6770636 2.175551,2.9820234 2.789838,4.7736288 1.107642,1.8941713 1.468358,3.8670735 2.481034,5.8473125 1.175148,1.660969 1.671888,3.641135 2.819973,5.343907 0.847783,1.82177 2.101257,3.503637 2.562934,5.418454 0.177584,1.734112 0.95433,3.395961 1.364758,5.102042 0.874805,1.669127 0.948328,3.349752 1.623256,5.114003 0.239603,1.903848 1.083053,3.649888 1.445294,5.559398 0.539673,1.743149 1.424133,3.529668 2.996492,4.498398 0.573329,0.984784 0.952578,0.94555 2.369628,1.168979 0.227974,1.040637 1.130854,1.20075 0.401659,0.04121 -0.399918,-1.486189 -1.347795,-3.890896 -2.12919,-4.535079 -0.964655,-0.970724 -0.749013,-2.014962 -1.735299,-2.799698 -1.233867,-1.497456 -1.267873,-3.568786 -1.296517,-5.469734 -0.01053,-1.983754 -0.447343,-4.162182 0.885371,-5.853168 0.976461,-1.675922 1.391185,-3.182582 1.821174,-5.104798 0.530877,-1.833499 0.877283,-3.493062 1.028171,-5.417367 -0.219664,-4.728298 -0.07378,-9.4656156 -0.115816,-14.198294 0.06441,-1.97473155 0.378099,-3.9580083 0.228089,-5.9303162 -1.430035,-0.5066585 -2.268391,-0.6042189 -3.211096,-0.9878615 -1.761749,-0.5896301 -4.259403,-0.4324533 -4.72457,1.6844952 -0.815548,0.9682045 -0.623888,2.28106475 -1.187897,2.95279165 -0.138982,1.72938015 0.04299,3.52770425 0.05094,5.28431165 0.157669,1.7892573 1.030238,3.5303066 1.773769,4.9796972 0.590288,1.139552 0.618069,2.445287 0.126571,3.451577 C 66.411662,14.942476 65.176639,13.0535 64.689162,11.776295 64.141735,10.04242 64.205844,8.1588351 63.731785,6.3618749 63.558698,4.2561069 63.146844,2.2835856 62.334316,0.32942568 c -0.71275,-1.28469666 -1.05473,-3.17763938 -2.18881,-3.59379848 -2.511943,-0.012486 -5.119351,0.4464569 -7.499381,-0.6119128 -0.531212,-0.1971438 -1.047616,-0.4321545 -1.554171,-0.6854959 z" id="path11"/><path style="fill:currentColor;stroke-width:0.264583" d="m 82.568247,-3.1932472 c -2.952535,3.91994754 -3.159491,9.2738639 -3.41073,14.0424262 -0.129058,6.365469 -1.125684,12.607153 -3.274723,18.633722 -2.460985,4.190548 -3.373257,11.149411 0.983225,14.538291 3.081169,2.692779 7.251929,3.235368 9.375568,6.750387 3.296104,3.59074 7.594398,7.054211 8.187291,12.181005 -0.616938,3.465911 5.854112,7.454171 4.239477,1.530648 2.028465,-4.209579 4.550845,5.659961 4.781215,8.18018 -0.37581,5.431412 -1.63909,10.849553 -0.80949,16.291329 1.58438,4.323577 4.50645,6.616594 8.89548,10.035918 3.29422,3.295101 6.48741,5.764841 8.89547,9.579741 3.27221,3.34571 4.3478,8.41684 5.01796,13.00108 0.96169,4.19464 1.87957,8.52252 3.17568,12.29037 3.16405,1.47662 12.74935,1.76468 9.05044,-4.03703 -2.13901,-2.80411 -4.22353,-5.76841 -5.38345,-8.93761 -1.96419,-3.43694 -3.55742,-7.40169 -3.74598,-11.41401 -0.53579,-4.10257 -2.84731,-8.19252 -5.37758,-10.938719 -2.88225,-3.954464 -7.2376,-5.993386 -10.26401,-9.807829 -4.69936,-2.794204 -4.69175,-8.884438 -2.73707,-13.457256 1.01438,-3.925335 1.50162,-8.524494 1.7889,-12.680905 3.63202,-3.215402 1.20374,6.669302 2.30343,9.110588 -0.0544,5.480559 1.505,11.440724 7.05744,13.062078 3.27864,2.655445 6.01442,5.549092 9.19392,8.442861 2.15201,2.333344 6.76406,8.312902 3.37758,10.120332 -3.76265,2.17424 2.39038,7.58566 3.42134,10.4921 0.68788,4.61492 2.77905,9.13564 2.0528,13.91343 -1.42097,2.30819 0.0226,8.46555 1.59662,9.80783 3.01782,-0.28374 6.46214,-3.57493 5.47414,-7.07076 -1.80896,-4.60429 -2.41814,-9.68518 -2.01774,-14.76341 0.27689,-5.27198 -0.56927,-10.61845 -2.56159,-15.47102 -2.32767,-4.658681 -4.84621,-9.696717 -8.76837,-13.449112 -2.71254,-2.72224 -6.03247,-5.57283 -8.54885,-8.776942 -3.15863,-3.945549 -4.54415,-9.660854 -4.25544,-14.866548 -0.0503,-5.697903 -3.44052,-7.134101 -5.55239,-12.276054 -2.69816,-3.969302 -4.54908,-8.259218 -5.08635,-13.11945 0.25802,-4.701082 -4.34819,-7.315784 -7.23046,-10.373724 -2.31048,-1.394762 -4.568013,-5.571807 -2.737073,-8.667386 1.680183,-3.085444 3.236293,-8.390773 7.070763,-10.7201862 3.53484,-2.8506458 5.85501,-8.91500178 3.34513,-12.4208142 -4.30371,-1.9656679 -10.891477,0.6403614 -11.833208,2.2981386 -3.179242,1.99666097 -6.042869,4.6449408 -6.196166,8.8001832 -0.76978,6.1612726 0.619011,12.4496446 -0.485737,18.5694666 0.360706,5.085907 2.546246,10.275057 5.818328,14.229318 3.340013,3.926875 4.856933,9.390075 9.351653,12.544899 2.81262,0.781221 7.54418,6.794942 3.07921,5.941107 -3.58045,-1.513289 -7.79645,-4.754511 -10.166864,-6.812087 -2.767329,-3.961244 -5.048962,-7.270761 -8.878583,-10.077296 -2.678329,-3.014876 -4.990778,-6.896607 -3.649427,-11.632541 2.530977,-3.625813 0.287546,-8.187073 -0.347583,-12.430078 -1.295488,-4.804577 0.826889,-9.421316 3.084653,-13.3439889 2.2252,-5.3855759 -2.439844,-8.164301 -7.298849,-6.8426723 z" id="path12"/><path style="fill:currentColor;stroke-width:0.264583" d="m 124.76472,-0.22808908 c -2.46415,-0.11104991 1.63471,0.29382212 -0.949,-0.1608279 -2.56028,0.0826364 -5.70018,0.0977121 -7.95393,0.38582317 -0.27955,2.72794321 -1.52076,5.53202051 -3.45579,7.51793771 -1.18107,2.3789761 -2.51098,4.6437921 -4.2415,6.7354631 -1.60267,2.418371 -3.24403,5.191015 -3.27159,8.142167 -0.15636,2.702314 2.67658,4.475181 4.85312,2.507801 2.804,-1.260437 3.3777,2.095914 4.00267,4.054272 0.76717,2.707807 0.48777,5.894497 1.89643,8.565213 1.05846,2.323419 1.71062,4.851826 3.19006,7.109821 1.58974,1.628787 2.64115,4.05262 3.87673,6.006194 1.76232,1.985425 3.11216,4.649888 4.18218,7.162354 1.07017,2.461719 0.9415,5.254978 1.81744,7.807532 -0.064,2.752974 0.60308,5.42355 1.29923,8.067112 -0.10883,1.845953 1.03006,4.449417 2.05281,2.052802 0.46464,-2.420793 1.26099,-4.952572 1.22679,-7.506146 -0.7682,-1.856656 -1.73283,-4.43676 -2.13915,-6.635378 -0.6165,-2.206945 -0.89499,-4.267946 -1.33139,-6.442925 0.68669,-2.49392 1.69132,-2.213408 2.69992,0.05643 0.33103,3.468901 1.96449,-0.665584 1.51504,-2.173293 0.20403,-2.709937 0.10932,-5.276203 -0.30632,-7.869999 -0.42864,-2.313715 -0.45317,-4.825206 -0.98063,-6.835299 -0.70885,-1.509923 -1.98101,-3.254862 -2.54662,-5.12356 -1.23466,-2.074179 -1.41036,-4.557482 -2.35989,-6.769937 -0.63509,-2.546347 -0.57271,-5.161562 -0.66524,-7.793831 -0.20405,-2.953345 5.26118,-2.098034 5.42808,-4.895033 0.82375,-2.644857 0.98984,-6.4641375 -2.72415,-6.7160232 -2.87678,-1.2801398 -3.30541,2.0835879 -5.06021,3.2596152 -1.3331,1.854531 -2.84965,3.559592 -3.78937,5.823715 0.20925,2.453243 0.25433,4.949745 1.06511,7.316581 0.53457,2.952122 2.80726,5.236198 3.80962,7.827711 1.34263,2.8535 1.76631,5.9769 3.06122,8.917778 0.96314,2.825625 1.8761,6.52478 1.17123,9.076798 -1.05629,1.638646 -3.24898,-1.105859 -3.5426,-2.886177 -1.07946,-2.437138 -2.08773,-3.539513 -1.95616,-6.167989 0.25274,-2.214198 -0.38966,-4.570916 -1.3192,-5.680139 0.41484,-0.588633 -2.68198,-5.387582 -2.00554,-6.022364 -1.01277,-2.029031 -1.83204,-4.58474 -2.7078,-6.36147 -0.39941,-0.998879 -1.16944,-1.909612 -1.74714,-3.265068 -1.9375,-1.503125 -1.83427,-4.037821 -1.737,-6.35738 0.15797,-2.6805367 1.90018,-4.2456677 3.46517,-6.2027228 1.98164,-2.0588453 4.0872,-3.5077102 5.66732,-5.95000545 l 0.23698,-0.26945979 z" id="path13"/></g></svg>